<svg xmlns="http://www.w3.org/2000/svg" viewBox="0 0 320 103.60264"><defs><style>.a{fill:#005dab;}</style></defs><title>ameriplus</title><path class="a" d="M340.19268,63.37568c0-.6504-.40094-.9075-1.142-.9075h-1.14932v3.09294h.57467V64.2302h.34777l.80171,1.33092h.58976l-.83174-1.3536A.77218.77218,0,0,0,340.19268,63.37568Zm-1.71666.41588v-.88474h.5142c.295,0,.62762.06044.62762.42342,0,.416-.29479.46132-.63509.46132Z" transform="translate(-21.6823 -22.37783)"/><path class="a" d="M338.95233,61.29611a2.72992,2.72992,0,1,0,2.73,2.72987A2.7335,2.7335,0,0,0,338.95233,61.29611Zm0,4.93043A2.205,2.205,0,1,1,341.017,64.026,2.096,2.096,0,0,1,338.95233,66.22654Z" transform="translate(-21.6823 -22.37783)"/><path class="a" d="M142.13147,60.98435c-4.3081,0-8.88972,2.04449-11.00958,6.41546-1.98309-4.51193-5.47064-6.41546-10.39415-6.41546a12.311,12.311,0,0,0-10.46253,5.922h-.13676V61.83037h-8.54781v31.205L81.87055,41.892H63.79839L43.398,95.62618C35.89562,83.93281,28.68379,65.29759,28.68379,36.87343c0-.941,3.20216-3.05972,15.204-5.03153A191.24191,191.24191,0,0,1,72.61832,29.458a175.76847,175.76847,0,0,1,27.364,2.75906,113.09992,113.09992,0,0,1,11.64,2.55951c4.216,1.2299,4.85141,2.012,4.93108,2.14179a143.16254,143.16254,0,0,1-1.58411,21.73255,15.39365,15.39365,0,0,1,5.75843-1.10545c.32353,0,.64079.00916.95461.02314a163.10162,163.10162,0,0,0,1.87321-25.24548c0-.80852,0-3.26906-19.16139-6.68645a202.44372,202.44372,0,0,0-31.77585-3.25879A216.41877,216.41877,0,0,0,40.10718,25.075a81.7534,81.7534,0,0,0-12.80871,2.94984c-3.83159,1.32271-5.61617,2.68853-5.61617,4.2982,0,16.95,2.25942,32.29015,6.71546,45.59422A89.63448,89.63448,0,0,0,43.8394,106.56317a64.29609,64.29609,0,0,0,17.06467,14.85338c5.422,3.15572,9.60633,4.28019,11.71425,4.28019,1.983,0,6.228-1.13511,11.66511-4.33449a65.15532,65.15532,0,0,0,17.06827-14.93938q1.21043-1.47543,2.3585-3.02587H95.89636a55.79514,55.79514,0,0,1-13.61843,11.557c-4.299,2.52958-7.94928,3.66189-9.65961,3.66189-3.42914,0-14.36484-4.1593-24.52306-16.51835q-.83357-1.01423-1.6843-2.13946h9.07861l4.77054-12.92382H84.727l4.51027,12.92382h15.01129l-.70169-1.82078h7.197V80.51254c0-4.72342.75227-12.19627,6.83823-12.19627,5.2655,0,5.2655,4.79392,5.2655,8.17783V98.13728h9.16322V80.51254c0-4.72342.75217-12.19627,6.83824-12.19627,5.26551,0,5.26551,4.79392,5.26551,8.17783V98.13728h9.16322V75.22511C153.27779,67.1178,150.816,60.98435,142.13147,60.98435ZM77.43316,69.65642l3.081,9.48226L72.448,73.27829,64.3819,79.13868l3.081-9.48226L59.39653,63.796H69.367l3.081-9.48236,3.0811,9.48236h9.97044Z" transform="translate(-21.6823 -22.37783)"/><path class="a" d="M171.9746,60.98435c-10.9412,0-16.34346,8.67142-16.34346,19.17574,0,11.91428,6.76985,18.82313,18.39494,18.82313a23.60547,23.60547,0,0,0,12.10373-2.89041V88.40836c-3.41917,1.974-7.2486,3.666-11.69347,3.666-5.67577,0-9.642-3.31338-10.05224-9.16491h24.34413C188.72823,70.2197,185.03573,60.98435,171.9746,60.98435Zm-7.5905,15.43931c.41028-4.86445,3.00878-8.53036,8.13754-8.53036s7.18012,3.94792,7.45363,8.53036Z" transform="translate(-21.6823 -22.37783)"/><path class="a" d="M200.61525,70.07874h-.13675V61.83037h-8.13762V98.13728h9.16341V84.81307c0-5.217,0-14.80486,7.45364-14.80486a9.09334,9.09334,0,0,1,4.103.7755V61.26636a9.7135,9.7135,0,0,0-2.80366-.282C204.78649,60.98435,201.02553,66.69475,200.61525,70.07874Z" transform="translate(-21.6823 -22.37783)"/><rect class="a" x="195.13938" y="39.45254" width="9.16322" height="36.30691"/><rect class="a" x="195.13938" y="26.47649" width="9.16322" height="9.02385"/><path class="a" d="M243.0406,48.929H230.93676V98.13728h9.57351V79.45512h4.03449c10.25749,0,18.39511-4.15949,18.39511-15.65078C262.93987,52.031,253.43466,48.929,243.0406,48.929Zm.82055,22.77112h-3.35088V56.6839h3.35088c4.92332,0,9.09475,1.974,9.09475,7.68445S248.64791,71.70016,243.86115,71.70016Z" transform="translate(-21.6823 -22.37783)"/><rect class="a" x="242.80036" y="22.8853" width="9.16323" height="52.87415"/><path class="a" d="M299.13866,79.59608c0,4.653-1.43606,12.05532-8.06914,12.05532-5.881,0-5.94931-5.99239-5.94931-10.4338V61.83037H275.957V84.74255c0,8.17774,3.6242,14.24067,11.96707,14.24067a14.53286,14.53286,0,0,0,11.55642-5.78082h.13695v4.93488h8.68446V61.83037h-9.16322Z" transform="translate(-21.6823 -22.37783)"/><path class="a" d="M320.70723,71.91174c0-3.102,2.9406-4.01844,5.40225-4.01844a21.87844,21.87844,0,0,1,8.20592,1.5509l.61532-7.12034a41,41,0,0,0-9.98377-1.33951c-7.18015,0-13.81323,3.45444-13.81323,11.27982,0,13.11273,15.93308,8.24837,15.93308,15.36879,0,3.525-3.6925,4.44141-6.01759,4.44141a19.6488,19.6488,0,0,1-9.02647-2.39692l-.547,7.75477a39.89561,39.89561,0,0,0,10.39406,1.551c7.45366,0,14.77073-3.3839,14.77073-11.84375C336.64049,74.02664,320.70723,77.69265,320.70723,71.91174Z" transform="translate(-21.6823 -22.37783)"/><path class="a" d="M114.35511,124.32953v1.36666h-4.86155v-1.36666h1.604V110.29h-1.69789v-1.36926h2.99674l.14084.40165a9.22156,9.22156,0,0,1,2.73592-.61291c3.46881,0,4.48337,1.36666,4.48337,4.78852v2.92632c0,2.7594-.82416,4.78852-4.38687,4.78852a8.65734,8.65734,0,0,1-2.62117-.42251v3.53923ZM112.7485,110.6186v8.732a7.03884,7.03884,0,0,0,2.62117.37557c1.90915,0,2.689-.63638,2.689-3.32536V113.498c0-2.4073-.54249-3.30189-2.689-3.30189A8.29013,8.29013,0,0,0,112.7485,110.6186Z" transform="translate(-21.6823 -22.37783)"/><path class="a" d="M123.36358,119.63229V110.29h-1.70049v-1.36926h2.99673l.30776,1.01456a10.33878,10.33878,0,0,1,3.89394-1.22582v1.69789a11.76207,11.76207,0,0,0-3.847.8972v8.32775h1.58053v1.36927H121.757v-1.36927Z" transform="translate(-21.6823 -22.37783)"/><path class="a" d="M135.06625,121.21281c-3.53923,0-4.55379-2.05259-4.55379-4.78852V113.498c0-2.642.82678-4.78852,4.55379-4.78852,3.68007,0,4.5538,2.123,4.5538,4.78852v2.94979C139.5731,119.16022,138.65243,121.21281,135.06625,121.21281Zm0-11.01673c-1.93523,0-2.90284.77722-2.90284,3.27842v2.94979c.02347,2.642,1.158,3.30189,2.90284,3.30189,1.84134,0,2.87938-.73028,2.90285-3.27842V113.4745C137.94563,110.87941,136.90759,110.19608,135.06625,110.19608Z" transform="translate(-21.6823 -22.37783)"/><path class="a" d="M147.40792,121.09545a7.43311,7.43311,0,0,1-1.39275.11736c-3.328,0-3.18452-3.13757-3.18452-3.89132V110.29H141.2736v-1.36926h1.58052l.30515-3.328h1.32233v3.328h2.90284V110.29H144.4816v7.33667c0,.96761.16431,2.09954,1.74483,2.09954a10.27534,10.27534,0,0,0,1.18149-.07042Z" transform="translate(-21.6823 -22.37783)"/><path class="a" d="M150.56114,115.29236c.047,3.23147.87372,4.43382,3.281,4.43382a10.64954,10.64954,0,0,0,2.73592-.30515v1.43969a11.22363,11.22363,0,0,1-2.73592.35209c-4.03478,0-4.932-1.98217-4.932-6.20473,0-5.04934,1.91175-6.29863,4.50684-6.29863,2.33428,0,3.96436,1.01456,3.96436,4.76505,0,.49554-.02348,1.1554-.073,1.81786Zm5.21365-1.29884v-.73028c0-2.33688-.89459-3.06716-2.35775-3.06716-1.77092,0-2.66811.99109-2.83243,3.79744Z" transform="translate(-21.6823 -22.37783)"/><path class="a" d="M165.55527,110.31345a10.90548,10.90548,0,0,0-1.51011-.11737c-1.72136,0-2.8559.566-2.8559,3.16105v3.208c0,2.66551,1.13454,3.16105,2.8559,3.16105a10.81778,10.81778,0,0,0,3.02021-.399v1.48663a13.60169,13.60169,0,0,1-3.13757.399c-3.63313,0-4.38948-2.05259-4.38948-4.64768v-2.90285c0-2.90023.566-4.95283,4.55379-4.95283a11.974,11.974,0,0,1,2.97326.399v3.35145h-1.5101Z" transform="translate(-21.6823 -22.37783)"/><path class="a" d="M175.01234,121.09545a7.433,7.433,0,0,1-1.39274.11736c-3.328,0-3.18452-3.13757-3.18452-3.89132V110.29H168.878v-1.36926h1.58053l.30515-3.328H172.086v3.328h2.90285V110.29H172.086v7.33667c0,.96761.16431,2.09954,1.74484,2.09954a10.275,10.275,0,0,0,1.18148-.07042Z" transform="translate(-21.6823 -22.37783)"/><path class="a" d="M189.89171,110.29l-3.208,10.216c-1.01456,3.60965-1.48663,5.14323-6.01695,5.47446v-1.48663c2.35775-.18779,3.34884-.8972,4.08172-3.06716L181.23273,110.29h-1.25191v-1.36926h4.38948V110.29H183.001l2.57161,8.612,2.55075-8.612h-1.39274v-1.36926h4.41295V110.29Z" transform="translate(-21.6823 -22.37783)"/><path class="a" d="M197.28314,121.21281c-3.53923,0-4.55379-2.05259-4.55379-4.78852V113.498c0-2.642.82678-4.78852,4.55379-4.78852,3.68007,0,4.55379,2.123,4.55379,4.78852v2.94979C201.79,119.16022,200.86932,121.21281,197.28314,121.21281Zm0-11.01673c-1.93523,0-2.90284.77722-2.90284,3.27842v2.94979c.02347,2.642,1.1554,3.30189,2.90284,3.30189,1.84134,0,2.87938-.73028,2.90285-3.27842V113.4745C200.16252,110.87941,199.12448,110.19608,197.28314,110.19608Z" transform="translate(-21.6823 -22.37783)"/><path class="a" d="M206.78977,108.92071v7.50358c0,2.4073.37818,3.30189,2.54814,3.30189a7.51444,7.51444,0,0,0,2.5012-.46946V110.29h-1.6979v-1.36926h3.34884v10.71158h1.60661v1.36927h-2.90285l-.14084-.40166a6.71375,6.71375,0,0,1-2.78548.61291c-3.1141,0-4.12867-1.0615-4.12867-4.67115V110.29h-1.70049v-1.36926Z" transform="translate(-21.6823 -22.37783)"/><path class="a" d="M218.5446,119.63229V110.29h-1.7005v-1.36926h2.99674l.30776,1.01456a10.33878,10.33878,0,0,1,3.89394-1.22582v1.69789a11.76207,11.76207,0,0,0-3.847.8972v8.32775h1.58052v1.36927H216.938v-1.36927Z" transform="translate(-21.6823 -22.37783)"/><path class="a" d="M232.83453,108.92071v10.71158h1.58053v1.36927H229.577v-1.36927h1.60661V110.29h-1.7005v-1.36926Zm-1.81786-3.63312c0-1.06151.26081-1.27538.99109-1.27538.73288,0,.99109.21387.99109,1.27538,0,.92066-.32863,1.10845-.99109,1.10845C231.3479,106.396,231.01667,106.20825,231.01667,105.28759Z" transform="translate(-21.6823 -22.37783)"/><path class="a" d="M236.24075,121.00156v-1.36927h1.60661V110.29h-1.7005v-1.36926h2.99674l.14083.40165a7.95488,7.95488,0,0,1,2.78548-.61291c3.11411,0,4.1052,1.06151,4.1052,4.67116v6.25168h1.604v1.36927h-3.255V113.498c0-2.4073-.3547-3.30189-2.52466-3.30189a7.63811,7.63811,0,0,0-2.5012.42252v9.01369h1.604v1.36927Z" transform="translate(-21.6823 -22.37783)"/><path class="a" d="M259.04883,108.92071V110.29H257.8204l-3.208,10.71159h-1.81786l-3.208-10.71159h-1.2519v-1.36926h4.29558V110.29H251.261l2.43077,8.32776,2.43078-8.32776h-1.36927v-1.36926Z" transform="translate(-21.6823 -22.37783)"/><path class="a" d="M262.129,115.29236c.04694,3.23147.87372,4.43382,3.281,4.43382a10.64961,10.64961,0,0,0,2.73593-.30515v1.43969a11.22378,11.22378,0,0,1-2.73593.35209c-4.03477,0-4.932-1.98217-4.932-6.20473,0-5.04934,1.91176-6.29863,4.50685-6.29863,2.33427,0,3.96435,1.01456,3.96435,4.76505,0,.49554-.02347,1.1554-.073,1.81786Zm5.21364-1.29884v-.73028c0-2.33688-.89458-3.06716-2.35774-3.06716-1.77092,0-2.66812.99109-2.83243,3.79744Z" transform="translate(-21.6823 -22.37783)"/><path class="a" d="M272.465,119.5384a6.436,6.436,0,0,0,1.5101.23734c1.43969,0,2.43078-.30776,2.43078-1.81787a2.05532,2.05532,0,0,0-1.2519-1.91176l-2.02913-1.17887a3.2718,3.2718,0,0,1-2.00565-3.23408c0-1.98218,1.29885-2.92371,4.08172-2.92371a7.47108,7.47108,0,0,1,2.4073.399v3.35145h-1.48663V110.2665a3.21292,3.21292,0,0,0-.92067-.12c-1.65094,0-2.38122.519-2.38122,1.6066a1.60772,1.60772,0,0,0,1.038,1.65095l2.07607,1.24929a3.68509,3.68509,0,0,1,2.17,3.328c0,2.38383-1.48663,3.23147-4.12867,3.23147a8.57728,8.57728,0,0,1-3.02021-.61291v-3.37231H272.465Z" transform="translate(-21.6823 -22.37783)"/><path class="a" d="M285.816,121.09545a7.43294,7.43294,0,0,1-1.39274.11736c-3.328,0-3.18452-3.13757-3.18452-3.89132V110.29h-1.55705v-1.36926h1.58052l.30515-3.328h1.32232v3.328h2.90285V110.29h-2.90285v7.33667c0,.96761.16432,2.09954,1.74484,2.09954a10.275,10.275,0,0,0,1.18148-.07042Z" transform="translate(-21.6823 -22.37783)"/><path class="a" d="M302.56022,121.00156V113.498c0-2.4073-.3547-3.30189-2.50119-3.30189a7.5299,7.5299,0,0,0-2.82982.61291,8.43558,8.43558,0,0,1,.30515,2.57162v6.25168h1.604v1.36927h-3.25494V113.498c0-2.4073-.35471-3.30189-2.5012-3.30189a7.42935,7.42935,0,0,0-2.52467.46946v8.96675h1.604v1.36927h-4.83807v-1.36927h1.58313V110.29h-1.677v-1.36926h2.97327l.11736.40165a6.81184,6.81184,0,0,1,2.809-.61291c1.58052,0,2.59509.2582,3.208.99109a4.49717,4.49717,0,0,1,.47207-.26082,7.71566,7.71566,0,0,1,3.02021-.73027c3.09063,0,4.08172,1.06151,4.08172,4.67116v6.25168h1.60661v1.36927Z" transform="translate(-21.6823 -22.37783)"/><path class="a" d="M308.984,115.29236c.04695,3.23147.87373,4.43382,3.281,4.43382a10.64954,10.64954,0,0,0,2.73592-.30515v1.43969a11.22363,11.22363,0,0,1-2.73592.35209c-4.03478,0-4.932-1.98217-4.932-6.20473,0-5.04934,1.91176-6.29863,4.50684-6.29863,2.33428,0,3.96436,1.01456,3.96436,4.76505,0,.49554-.02348,1.1554-.073,1.81786Zm5.21365-1.29884v-.73028c0-2.33688-.89459-3.06716-2.35775-3.06716-1.77092,0-2.66811.99109-2.83242,3.79744Z" transform="translate(-21.6823 -22.37783)"/><path class="a" d="M317.65607,121.00156v-1.36927h1.6066V110.29h-1.70049v-1.36926h2.99673l.14084.40165a7.95488,7.95488,0,0,1,2.78548-.61291c3.11411,0,4.1052,1.06151,4.1052,4.67116v6.25168h1.604v1.36927h-3.255V113.498c0-2.4073-.3547-3.30189-2.52467-3.30189a7.63809,7.63809,0,0,0-2.50119.42252v9.01369h1.604v1.36927Z" transform="translate(-21.6823 -22.37783)"/><path class="a" d="M336.00686,121.09545a7.43311,7.43311,0,0,1-1.39275.11736c-3.328,0-3.18452-3.13757-3.18452-3.89132V110.29h-1.55705v-1.36926h1.58052l.30515-3.328h1.32233v3.328h2.90284V110.29h-2.90284v7.33667c0,.96761.16431,2.09954,1.74483,2.09954a10.27534,10.27534,0,0,0,1.18149-.07042Z" transform="translate(-21.6823 -22.37783)"/></svg>