<svg id="Layer_1" data-name="Layer 1" xmlns="http://www.w3.org/2000/svg" width="16" height="16" viewBox="0 0 16 16"><defs><style>.cls-1{fill:#003e72;}</style></defs><title>icon-fax</title><g id="AmericreditPlus-Home"><g id="GAP-Claim-Contact"><g id="print-glyph-16"><rect id="Rectangle-path" class="cls-1" x="3" width="10" height="3"/><path id="Shape" class="cls-1" d="M15,5H1A.94.94,0,0,0,0,6v6a.94.94,0,0,0,1,1H3v2a.94.94,0,0,0,1,1h8a.94.94,0,0,0,1-1V13h2a.94.94,0,0,0,1-1V6A.94.94,0,0,0,15,5Zm-4,9H5V9h6Z"/></g></g></g></svg>