<svg id="Layer_1" data-name="Layer 1" xmlns="http://www.w3.org/2000/svg" width="26" height="26" viewBox="0 0 26 26"><defs><style>.cls-1,.cls-2{fill:none;stroke:#fff;stroke-width:2px;}.cls-2{stroke-linecap:square;}.cls-3{fill:#fff;}</style></defs><title>icon-pdf</title><g id="AmericreditPlus-Home"><g id="GAP-Forms"><g id="pdf-outline-32-copy-2"><polyline id="Shape" class="cls-1" points="16.2 1 16.2 7.4 22.6 7.4"/><polyline id="Shape-2" data-name="Shape" class="cls-2" points="22.6 10.6 22.6 7.4 16.2 1 3.4 1 3.4 10.6"/><polyline id="Shape-3" data-name="Shape" class="cls-2" points="3.4 21.8 3.4 25 22.6 25 22.6 21.8"/><path id="Shape-4" data-name="Shape" class="cls-3" d="M10.71,15.48a1.55,1.55,0,0,1-.45,1.19A1.81,1.81,0,0,1,9,17.08H8.63V18.6H7.4V14H9a1.94,1.94,0,0,1,1.3.38A1.34,1.34,0,0,1,10.71,15.48Zm-2.08.6h.23a.6.6,0,0,0,.44-.16.56.56,0,0,0,.16-.43c0-.31-.17-.46-.51-.46H8.63Z"/><path id="Shape-5" data-name="Shape" class="cls-3" d="M15.32,16.22A2.35,2.35,0,0,1,14.69,18a2.43,2.43,0,0,1-1.77.62H11.44V14H13a2.4,2.4,0,0,1,1.7.56A2.14,2.14,0,0,1,15.32,16.22Zm-1.28,0a1.42,1.42,0,0,0-.25-.93A.93.93,0,0,0,13,15h-.36v2.56H13a1,1,0,0,0,.83-.33A1.62,1.62,0,0,0,14,16.26Z"/><polygon id="Shape-6" data-name="Shape" class="cls-3" points="17.35 18.6 16.14 18.6 16.14 14.03 18.84 14.03 18.84 15.02 17.35 15.02 17.35 15.89 18.72 15.89 18.72 16.88 17.35 16.88 17.35 18.6"/><rect id="Rectangle-path" class="cls-2" x="1" y="10.6" width="24" height="11.2"/></g></g></g></svg>